<svg id="8c374513-4341-4b15-9587-b2c3a22cf90f" data-name="Camada 1" xmlns="http://www.w3.org/2000/svg" viewBox="0 0 131.1 70"><title>logo_utu-digital</title><rect x="52.21" y="17.76" width="8.74" height="52.24" style="fill:#030104"/><rect y="0.03" width="8.74" height="69.93" style="fill:#030104"/><rect x="17.34" width="8.74" height="51.5" style="fill:#030104"/><rect x="34.63" y="17.76" width="8.74" height="33.74" style="fill:#030104"/><rect x="8.66" y="-8.64" width="8.76" height="26.08" transform="translate(8.64 17.44) rotate(-90)" style="fill:#030104"/><rect x="61.02" y="-61" width="8.76" height="130.79" transform="translate(61 69.79) rotate(-90)" style="fill:#030104"/><rect x="26.18" y="35.18" width="8.76" height="60.8" transform="translate(-35.03 96.14) rotate(-90)" style="fill:#030104"/><rect x="43.3" y="9.1" width="8.76" height="26.08" transform="translate(25.53 69.81) rotate(-90)" style="fill:#030104"/><rect x="26" y="34.08" width="8.76" height="26.08" transform="translate(-16.74 77.5) rotate(-90)" style="fill:#030104"/><rect x="70.15" y="17.76" width="8.74" height="52.24" transform="translate(149.04 87.76) rotate(-180)" style="fill:#030104"/><rect x="122.36" y="0.03" width="8.74" height="69.97" transform="translate(253.47 70.03) rotate(-180)" style="fill:#030104"/><rect x="105.02" width="8.74" height="51.5" transform="translate(218.78 51.5) rotate(-180)" style="fill:#030104"/><rect x="87.73" y="17.76" width="8.74" height="33.74" transform="translate(184.2 69.26) rotate(-180)" style="fill:#030104"/><rect x="113.68" y="-8.64" width="8.76" height="26.08" transform="translate(113.66 122.46) rotate(-90)" style="fill:#030104"/><rect x="96.17" y="35.18" width="8.76" height="60.8" transform="translate(34.97 166.13) rotate(-90)" style="fill:#030104"/><rect x="79.05" y="9.1" width="8.76" height="26.08" transform="translate(61.29 105.57) rotate(-90)" style="fill:#030104"/><rect x="96.34" y="34.08" width="8.76" height="26.08" transform="translate(53.6 147.84) rotate(-90)" style="fill:#030104"/></svg>