<?xml version="1.0" encoding="utf-8"?>
<!-- Generator: Adobe Illustrator 19.2.0, SVG Export Plug-In . SVG Version: 6.00 Build 0)  -->
<svg version="1.1" id="Camada_1" xmlns="http://www.w3.org/2000/svg" xmlns:xlink="http://www.w3.org/1999/xlink" x="0px" y="0px"
	 viewBox="0 0 786.8 178.8" style="enable-background:new 0 0 786.8 178.8;" xml:space="preserve">
<path id="logotipo_3_" d="M0,0L0,0v178.7h0.4l155.3,0.1v-0.1V45.3H88.5v63.8H66.6V22.4h201.7v86.8h-21.8V45.3h-67.2v133.4v0.1h155.7
	V0v0H0z M110.8,131.5h0.1l-0.1-63.8h22.6v88.6H22.3V22.4h22v109.1H110.8z M312.6,156.3H201.5V67.7h22.6l-0.1,63.8h0.1h66.5V22.4h22
	V156.3z"/>
<g>
	<path d="M367.2,55.9c0-2.8,0.4-5.4,1.3-7.6c0.9-2.2,2-4.2,3.5-5.7c1.4-1.6,3.1-2.8,4.9-3.6c1.8-0.8,3.8-1.2,5.7-1.2
		c2.2,0,4.1,0.4,5.9,1.1c1.7,0.8,3.2,1.8,4.3,3.3c1.2,1.4,2,3.1,2.7,5.1c0.6,2,0.9,4.2,0.9,6.7c0,1.3-0.1,2.3-0.2,3.2H373
		c0.2,3.7,1.4,6.7,3.4,8.9c2.1,2.2,4.7,3.3,8.1,3.3c1.7,0,3.2-0.2,4.6-0.7c1.4-0.5,2.7-1.1,4-2l2.1,3.8c-1.5,0.9-3.2,1.8-5,2.5
		c-1.8,0.7-4,1.1-6.3,1.1c-2.3,0-4.5-0.4-6.5-1.2s-3.8-2-5.3-3.6c-1.5-1.5-2.7-3.4-3.5-5.6C367.6,61.2,367.2,58.7,367.2,55.9z
		 M391.3,53.2c0-3.6-0.7-6.3-2.2-8.1c-1.5-1.9-3.6-2.8-6.3-2.8c-1.2,0-2.4,0.2-3.5,0.7c-1.1,0.5-2.1,1.2-3,2.1
		c-0.9,0.9-1.6,2.1-2.2,3.4c-0.6,1.3-1,2.9-1.2,4.7H391.3z"/>
	<path d="M405,38.6h4.8l0.5,5h0.2c1.5-1.7,3.2-3,4.9-4.2c1.8-1.1,3.7-1.7,5.8-1.7c2.6,0,4.7,0.6,6.2,1.7c1.5,1.2,2.6,2.8,3.3,4.9
		c1.8-2,3.6-3.6,5.4-4.8c1.8-1.2,3.8-1.8,5.9-1.8c3.6,0,6.2,1.1,7.9,3.4c1.7,2.3,2.6,5.6,2.6,10.1v21.9h-5.8V52
		c0-3.3-0.5-5.6-1.6-7.1c-1-1.4-2.6-2.2-4.8-2.2c-2.6,0-5.5,1.8-8.7,5.3v25h-5.8V52c0-3.3-0.5-5.6-1.6-7.1c-1-1.4-2.7-2.2-4.9-2.2
		c-2.6,0-5.5,1.8-8.7,5.3v25H405V38.6z"/>
	<path d="M469.6,76v11.6h-5.8V38.6h4.8l0.5,4h0.2c1.6-1.3,3.3-2.5,5.1-3.4c1.9-0.9,3.8-1.4,5.9-1.4c2.2,0,4.2,0.4,5.9,1.2
		c1.7,0.8,3.1,2,4.3,3.5c1.1,1.5,2,3.4,2.6,5.5c0.6,2.2,0.9,4.6,0.9,7.3c0,2.9-0.4,5.6-1.2,7.8c-0.8,2.3-1.9,4.2-3.3,5.9
		c-1.4,1.6-3,2.8-4.8,3.7c-1.8,0.8-3.7,1.2-5.7,1.2c-1.6,0-3.2-0.4-4.8-1.1c-1.6-0.7-3.2-1.7-4.8-2.9L469.6,76z M469.6,65.4
		c1.6,1.3,3.1,2.3,4.5,2.8c1.5,0.5,2.8,0.8,3.9,0.8c1.4,0,2.7-0.3,3.9-1c1.2-0.6,2.2-1.5,3.1-2.7c0.9-1.2,1.6-2.6,2.1-4.3
		c0.5-1.7,0.7-3.6,0.7-5.7c0-1.9-0.2-3.6-0.5-5.2s-0.9-2.9-1.6-4c-0.7-1.1-1.7-2-2.8-2.6c-1.2-0.6-2.5-0.9-4.2-0.9
		c-1.5,0-2.9,0.4-4.4,1.2c-1.5,0.8-3.1,2-4.8,3.5V65.4z"/>
	<path d="M500.7,55.9c0-2.9,0.4-5.5,1.3-7.7c0.9-2.2,2-4.2,3.5-5.7c1.5-1.6,3.2-2.7,5.1-3.5c1.9-0.8,3.9-1.2,6.1-1.2
		s4.2,0.4,6.1,1.2c1.9,0.8,3.6,2,5.1,3.5c1.5,1.6,2.6,3.5,3.5,5.7c0.9,2.2,1.3,4.8,1.3,7.7c0,2.8-0.4,5.4-1.3,7.6
		c-0.9,2.2-2,4.1-3.5,5.7c-1.5,1.5-3.2,2.7-5.1,3.5s-3.9,1.2-6.1,1.2s-4.2-0.4-6.1-1.2c-1.9-0.8-3.6-2-5.1-3.5
		c-1.5-1.5-2.6-3.4-3.5-5.7C501.1,61.3,500.7,58.7,500.7,55.9z M506.7,55.9c0,2,0.2,3.8,0.7,5.4c0.5,1.6,1.1,3,2,4.2
		c0.9,1.2,1.9,2.1,3.2,2.7c1.2,0.6,2.6,1,4,1c1.5,0,2.8-0.3,4-1c1.2-0.6,2.3-1.5,3.2-2.7c0.9-1.2,1.6-2.5,2-4.2
		c0.5-1.6,0.7-3.4,0.7-5.4c0-2-0.2-3.8-0.7-5.4c-0.5-1.6-1.1-3-2-4.2c-0.9-1.2-1.9-2.1-3.2-2.7c-1.2-0.6-2.6-1-4-1
		c-1.5,0-2.8,0.3-4,1c-1.2,0.6-2.3,1.6-3.2,2.7c-0.9,1.2-1.5,2.6-2,4.2C506.9,52.1,506.7,53.9,506.7,55.9z"/>
	<path d="M537.3,38.6h6l5.1,19.9c0.4,1.7,0.7,3.3,1.1,4.8c0.3,1.6,0.7,3.1,1,4.8h0.3c0.4-1.6,0.8-3.2,1.1-4.8
		c0.4-1.6,0.8-3.2,1.2-4.8l5.3-19.9h5.7l5.4,19.9c0.4,1.7,0.8,3.3,1.2,4.8c0.4,1.6,0.8,3.1,1.2,4.8h0.3c0.4-1.6,0.7-3.2,1.1-4.8
		c0.3-1.6,0.7-3.2,1.1-4.8l5-19.9h5.5l-9.2,34.5h-7.1l-5-18.5c-0.4-1.7-0.8-3.3-1.2-4.9c-0.4-1.6-0.7-3.3-1.2-5h-0.3
		c-0.4,1.8-0.8,3.4-1.1,5.1c-0.4,1.6-0.8,3.3-1.3,4.9l-4.8,18.5h-6.8L537.3,38.6z"/>
	<path d="M589.5,55.9c0-2.8,0.4-5.4,1.3-7.6c0.9-2.2,2-4.2,3.5-5.7c1.4-1.6,3.1-2.8,4.9-3.6c1.8-0.8,3.8-1.2,5.7-1.2
		c2.2,0,4.1,0.4,5.9,1.1c1.7,0.8,3.2,1.8,4.3,3.3c1.2,1.4,2,3.1,2.7,5.1c0.6,2,0.9,4.2,0.9,6.7c0,1.3-0.1,2.3-0.2,3.2h-23.3
		c0.2,3.7,1.4,6.7,3.4,8.9c2.1,2.2,4.7,3.3,8.1,3.3c1.7,0,3.2-0.2,4.6-0.7c1.4-0.5,2.7-1.1,4-2l2.1,3.8c-1.5,0.9-3.2,1.8-5,2.5
		c-1.8,0.7-4,1.1-6.3,1.1c-2.3,0-4.5-0.4-6.5-1.2s-3.8-2-5.3-3.6c-1.5-1.5-2.7-3.4-3.5-5.6C590,61.2,589.5,58.7,589.5,55.9z
		 M613.7,53.2c0-3.6-0.7-6.3-2.2-8.1c-1.5-1.9-3.6-2.8-6.3-2.8c-1.2,0-2.4,0.2-3.5,0.7c-1.1,0.5-2.1,1.2-3,2.1
		c-0.9,0.9-1.6,2.1-2.2,3.4c-0.6,1.3-1,2.9-1.2,4.7H613.7z"/>
	<path d="M627.3,38.6h4.8l0.5,6.2h0.2c1.2-2.2,2.6-3.9,4.3-5.2c1.7-1.3,3.5-1.9,5.5-1.9c1.4,0,2.6,0.2,3.7,0.7l-1.1,5.1
		c-0.6-0.2-1.1-0.3-1.6-0.4c-0.5-0.1-1.1-0.1-1.8-0.1c-1.5,0-3,0.6-4.6,1.8c-1.6,1.2-3,3.2-4.2,6.2v22.1h-5.8V38.6z"/>
	<path d="M654.9,31.5c-1.1,0-2.1-0.4-2.9-1.1c-0.8-0.7-1.2-1.6-1.2-2.7c0-1.1,0.4-2,1.2-2.7c0.8-0.7,1.7-1,2.9-1s2.1,0.3,2.9,1
		c0.8,0.7,1.2,1.6,1.2,2.7c0,1.1-0.4,2-1.2,2.7C657,31.1,656.1,31.5,654.9,31.5z M651.9,38.6h5.8v34.5h-5.8V38.6z"/>
	<path d="M669.4,38.6h4.8l0.5,5h0.2c1.7-1.7,3.4-3,5.2-4.2c1.8-1.1,3.9-1.7,6.4-1.7c3.6,0,6.3,1.1,8,3.4c1.7,2.3,2.5,5.6,2.5,10.1
		v21.9h-5.8V52c0-3.3-0.5-5.6-1.6-7.1c-1-1.4-2.7-2.2-5-2.2c-1.8,0-3.4,0.5-4.8,1.3c-1.4,0.9-2.9,2.2-4.7,4v25h-5.8V38.6z"/>
	<path d="M705.6,79.7c0-1.5,0.4-2.9,1.3-4.2c0.9-1.3,2.1-2.5,3.7-3.6v-0.3c-0.9-0.5-1.6-1.2-2.2-2.2s-0.9-2.1-0.9-3.4
		c0-1.5,0.4-2.7,1.2-3.8c0.8-1.1,1.7-1.9,2.6-2.6v-0.3c-1.1-0.9-2.2-2.2-3.1-3.8c-0.9-1.6-1.4-3.4-1.4-5.5c0-1.9,0.3-3.6,1-5.1
		c0.7-1.5,1.6-2.8,2.8-3.9c1.2-1.1,2.6-1.9,4.2-2.4c1.6-0.6,3.3-0.9,5-0.9c0.9,0,1.8,0.1,2.7,0.2c0.8,0.2,1.6,0.4,2.2,0.6h12V43
		h-7.1c0.8,0.8,1.5,1.8,2,3.1c0.5,1.2,0.8,2.6,0.8,4c0,1.8-0.3,3.5-1,5c-0.7,1.5-1.6,2.7-2.7,3.8c-1.1,1-2.5,1.8-4,2.4
		c-1.5,0.6-3.2,0.9-4.9,0.9c-0.9,0-1.7-0.1-2.6-0.3c-0.9-0.2-1.8-0.5-2.6-0.9c-0.6,0.5-1.1,1.1-1.6,1.7c-0.4,0.6-0.6,1.4-0.6,2.4
		c0,1.1,0.4,2,1.3,2.7c0.9,0.7,2.5,1.1,4.8,1.1h6.7c4,0,7,0.6,9,2c2,1.3,3,3.4,3,6.3c0,1.6-0.4,3.1-1.2,4.6c-0.8,1.4-2,2.7-3.5,3.8
		c-1.5,1.1-3.3,2-5.5,2.6c-2.2,0.6-4.6,1-7.3,1c-2.1,0-4.1-0.2-5.8-0.6c-1.8-0.4-3.3-1-4.5-1.8c-1.3-0.8-2.2-1.8-2.9-2.9
		C705.9,82.5,705.6,81.2,705.6,79.7z M710.7,78.9c0,1.8,0.9,3.3,2.7,4.4c1.8,1.1,4.2,1.6,7.3,1.6c1.7,0,3.2-0.2,4.5-0.6
		c1.3-0.4,2.5-0.9,3.4-1.6c0.9-0.6,1.7-1.4,2.2-2.2c0.5-0.9,0.8-1.7,0.8-2.6c0-1.6-0.6-2.7-1.8-3.3c-1.2-0.6-2.9-0.9-5.2-0.9h-6
		c-0.7,0-1.4,0-2.2-0.1c-0.8-0.1-1.5-0.2-2.3-0.5c-1.2,0.9-2.1,1.8-2.7,2.8C711,76.9,710.7,77.9,710.7,78.9z M719.9,58.2
		c1,0,1.9-0.2,2.8-0.6c0.9-0.4,1.7-0.9,2.3-1.6c0.7-0.7,1.2-1.6,1.6-2.6c0.4-1,0.6-2.2,0.6-3.4c0-2.6-0.7-4.5-2.1-5.9
		c-1.4-1.4-3.1-2.1-5.2-2.1s-3.8,0.7-5.2,2.1c-1.4,1.4-2.1,3.4-2.1,5.9c0,1.3,0.2,2.4,0.6,3.4c0.4,1,0.9,1.9,1.6,2.6
		c0.7,0.7,1.5,1.3,2.3,1.6C717.9,58,718.9,58.2,719.9,58.2z"/>
	<path d="M375.6,142.5v11.6h-5.8v-49.1h4.8l0.5,4h0.2c1.6-1.3,3.3-2.5,5.1-3.4c1.9-0.9,3.8-1.4,5.9-1.4c2.2,0,4.2,0.4,5.9,1.2
		c1.7,0.8,3.1,2,4.3,3.5c1.1,1.5,2,3.4,2.6,5.5c0.6,2.2,0.9,4.6,0.9,7.3c0,2.9-0.4,5.6-1.2,7.8c-0.8,2.3-1.9,4.2-3.3,5.9
		c-1.4,1.6-3,2.8-4.8,3.7c-1.8,0.8-3.7,1.2-5.7,1.2c-1.6,0-3.2-0.4-4.8-1.1c-1.6-0.7-3.2-1.7-4.8-2.9L375.6,142.5z M375.6,131.9
		c1.6,1.3,3.1,2.3,4.5,2.8c1.5,0.5,2.8,0.8,3.9,0.8c1.4,0,2.7-0.3,3.9-1c1.2-0.6,2.2-1.5,3.1-2.7c0.9-1.2,1.6-2.6,2.1-4.3
		c0.5-1.7,0.7-3.6,0.7-5.7c0-1.9-0.2-3.6-0.5-5.2c-0.3-1.6-0.9-2.9-1.6-4c-0.7-1.1-1.7-2-2.8-2.6c-1.2-0.6-2.5-0.9-4.2-0.9
		c-1.5,0-2.9,0.4-4.4,1.2c-1.5,0.8-3.1,2-4.8,3.5V131.9z"/>
	<path d="M406.6,122.4c0-2.8,0.4-5.4,1.3-7.6c0.9-2.2,2-4.2,3.5-5.7c1.4-1.6,3.1-2.8,4.9-3.6c1.8-0.8,3.8-1.2,5.7-1.2
		c2.2,0,4.1,0.4,5.9,1.1c1.7,0.8,3.2,1.8,4.3,3.3c1.2,1.4,2,3.1,2.7,5.1c0.6,2,0.9,4.2,0.9,6.7c0,1.3-0.1,2.3-0.2,3.2h-23.3
		c0.2,3.7,1.4,6.7,3.4,8.9c2.1,2.2,4.7,3.3,8.1,3.3c1.7,0,3.2-0.2,4.6-0.7c1.4-0.5,2.7-1.1,4-2l2.1,3.8c-1.5,0.9-3.2,1.8-5,2.5
		c-1.8,0.7-4,1.1-6.3,1.1c-2.3,0-4.5-0.4-6.5-1.2s-3.8-2-5.3-3.6c-1.5-1.5-2.7-3.4-3.5-5.6C407,127.8,406.6,125.3,406.6,122.4z
		 M430.7,119.8c0-3.6-0.7-6.3-2.2-8.1c-1.5-1.9-3.6-2.8-6.3-2.8c-1.2,0-2.4,0.2-3.5,0.7c-1.1,0.5-2.1,1.2-3,2.1
		c-0.9,0.9-1.6,2.1-2.2,3.4c-0.6,1.3-1,2.9-1.2,4.7H430.7z"/>
	<path d="M441.8,122.4c0-2.9,0.4-5.5,1.3-7.7c0.9-2.2,2-4.2,3.5-5.7c1.5-1.6,3.2-2.7,5.1-3.5c1.9-0.8,3.9-1.2,6.1-1.2
		c2.1,0,4.2,0.4,6.1,1.2c1.9,0.8,3.6,2,5.1,3.5c1.5,1.6,2.6,3.5,3.5,5.7c0.9,2.2,1.3,4.8,1.3,7.7c0,2.8-0.4,5.4-1.3,7.6
		c-0.9,2.2-2,4.1-3.5,5.7c-1.5,1.5-3.2,2.7-5.1,3.5c-1.9,0.8-3.9,1.2-6.1,1.2c-2.1,0-4.2-0.4-6.1-1.2c-1.9-0.8-3.6-2-5.1-3.5
		c-1.5-1.5-2.6-3.4-3.5-5.7C442.3,127.8,441.8,125.3,441.8,122.4z M447.8,122.4c0,2,0.2,3.8,0.7,5.4c0.5,1.6,1.1,3,2,4.2
		c0.9,1.2,1.9,2.1,3.2,2.7c1.2,0.6,2.6,1,4,1s2.8-0.3,4-1c1.2-0.6,2.3-1.5,3.2-2.7c0.9-1.2,1.5-2.5,2-4.2c0.5-1.6,0.7-3.4,0.7-5.4
		c0-2-0.2-3.8-0.7-5.4c-0.5-1.6-1.1-3-2-4.2c-0.9-1.2-1.9-2.1-3.2-2.7c-1.2-0.6-2.6-1-4-1s-2.8,0.3-4,1c-1.2,0.6-2.3,1.6-3.2,2.7
		c-0.9,1.2-1.6,2.6-2,4.2C448.1,118.6,447.8,120.4,447.8,122.4z"/>
	<path d="M488.7,142.5v11.6h-5.8v-49.1h4.8l0.5,4h0.2c1.6-1.3,3.3-2.5,5.1-3.4c1.9-0.9,3.8-1.4,5.9-1.4c2.2,0,4.2,0.4,5.9,1.2
		c1.7,0.8,3.1,2,4.3,3.5c1.1,1.5,2,3.4,2.6,5.5c0.6,2.2,0.9,4.6,0.9,7.3c0,2.9-0.4,5.6-1.2,7.8c-0.8,2.3-1.9,4.2-3.3,5.9
		c-1.4,1.6-3,2.8-4.8,3.7c-1.8,0.8-3.7,1.2-5.7,1.2c-1.6,0-3.2-0.4-4.8-1.1c-1.6-0.7-3.2-1.7-4.8-2.9L488.7,142.5z M488.7,131.9
		c1.6,1.3,3.1,2.3,4.5,2.8c1.5,0.5,2.8,0.8,3.9,0.8c1.4,0,2.7-0.3,3.9-1c1.2-0.6,2.2-1.5,3.1-2.7c0.9-1.2,1.6-2.6,2.1-4.3
		c0.5-1.7,0.7-3.6,0.7-5.7c0-1.9-0.2-3.6-0.5-5.2c-0.3-1.6-0.9-2.9-1.6-4c-0.7-1.1-1.7-2-2.8-2.6c-1.2-0.6-2.5-0.9-4.2-0.9
		c-1.5,0-2.9,0.4-4.4,1.2c-1.5,0.8-3.1,2-4.8,3.5V131.9z"/>
	<path d="M522.2,89.1h5.8v44c0,0.9,0.2,1.6,0.5,2c0.3,0.4,0.7,0.6,1.1,0.6c0.2,0,0.4,0,0.5,0c0.2,0,0.4,0,0.7-0.1l0.8,4.4
		c-0.4,0.2-0.8,0.3-1.3,0.4c-0.5,0.1-1.2,0.1-2,0.1c-2.2,0-3.8-0.7-4.8-2c-0.9-1.3-1.4-3.3-1.4-5.8V89.1z"/>
	<path d="M537.8,122.4c0-2.8,0.4-5.4,1.3-7.6c0.9-2.2,2-4.2,3.5-5.7c1.4-1.6,3.1-2.8,4.9-3.6c1.8-0.8,3.8-1.2,5.7-1.2
		c2.2,0,4.1,0.4,5.9,1.1c1.7,0.8,3.2,1.8,4.3,3.3c1.2,1.4,2,3.1,2.7,5.1c0.6,2,0.9,4.2,0.9,6.7c0,1.3-0.1,2.3-0.2,3.2h-23.3
		c0.2,3.7,1.4,6.7,3.4,8.9c2.1,2.2,4.7,3.3,8.1,3.3c1.7,0,3.2-0.2,4.6-0.7c1.4-0.5,2.7-1.1,4-2l2.1,3.8c-1.5,0.9-3.2,1.8-5,2.5
		c-1.8,0.7-4,1.1-6.3,1.1c-2.3,0-4.5-0.4-6.5-1.2s-3.8-2-5.3-3.6c-1.5-1.5-2.7-3.4-3.5-5.6C538.2,127.8,537.8,125.3,537.8,122.4z
		 M561.9,119.8c0-3.6-0.7-6.3-2.2-8.1c-1.5-1.9-3.6-2.8-6.3-2.8c-1.2,0-2.4,0.2-3.5,0.7c-1.1,0.5-2.1,1.2-3,2.1
		c-0.9,0.9-1.6,2.1-2.2,3.4c-0.6,1.3-1,2.9-1.2,4.7H561.9z"/>
</g>
</svg>
